<svg width="52" height="51" viewBox="0 0 52 51" fill="none" xmlns="http://www.w3.org/2000/svg">
<ellipse cx="26.3225" cy="25.5" rx="25.4309" ry="25.5" fill="#2B2B2B"/>
<path fill-rule="evenodd" clip-rule="evenodd" d="M22.2984 15.066C23.4683 15.012 23.8412 15 26.8211 15C29.801 15 30.174 15.013 31.3429 15.066C32.5117 15.119 33.3095 15.306 34.0076 15.577C34.7386 15.854 35.4018 16.287 35.9503 16.847C36.5088 17.396 36.9396 18.06 37.2149 18.794C37.4862 19.494 37.6717 20.294 37.7255 21.464C37.7794 22.639 37.7913 23.013 37.7913 26C37.7913 28.988 37.7784 29.362 37.7255 30.535C37.6727 31.705 37.4862 32.505 37.2149 33.205C36.9396 33.9391 36.5081 34.6042 35.9503 35.154C35.4018 35.714 34.7386 36.146 34.0076 36.422C33.3095 36.694 32.5117 36.88 31.3448 36.934C30.174 36.988 29.801 37 26.8211 37C23.8412 37 23.4683 36.987 22.2984 36.934C21.1316 36.881 20.3338 36.694 19.6357 36.422C18.9036 36.146 18.2403 35.7133 17.6919 35.154C17.1338 34.6047 16.702 33.9399 16.4264 33.206C16.1561 32.506 15.9706 31.706 15.9168 30.536C15.8629 29.361 15.851 28.987 15.851 26C15.851 23.012 15.8639 22.638 15.9168 21.466C15.9696 20.294 16.1561 19.494 16.4264 18.794C16.7024 18.0601 17.1346 17.3953 17.6929 16.846C18.2405 16.2865 18.9031 15.8534 19.6347 15.577C20.3328 15.306 21.1306 15.12 22.2974 15.066H22.2984ZM31.2541 17.046C30.0972 16.993 29.7502 16.982 26.8211 16.982C23.8921 16.982 23.545 16.993 22.3882 17.046C21.3181 17.095 20.7377 17.274 20.3507 17.425C19.8391 17.625 19.4731 17.862 19.0892 18.247C18.7252 18.6021 18.4451 19.0343 18.2694 19.512C18.1188 19.9 17.9403 20.482 17.8914 21.555C17.8386 22.715 17.8276 23.063 17.8276 26C17.8276 28.937 17.8386 29.285 17.8914 30.445C17.9403 31.518 18.1188 32.1 18.2694 32.488C18.4449 32.965 18.7251 33.398 19.0892 33.753C19.4432 34.118 19.875 34.399 20.3507 34.575C20.7377 34.726 21.3181 34.905 22.3882 34.954C23.545 35.007 23.8911 35.018 26.8211 35.018C29.7512 35.018 30.0972 35.007 31.2541 34.954C32.3242 34.905 32.9046 34.726 33.2916 34.575C33.8032 34.375 34.1692 34.138 34.5531 33.753C34.9171 33.398 35.1974 32.965 35.3729 32.488C35.5235 32.1 35.702 31.518 35.7509 30.445C35.8037 29.285 35.8147 28.937 35.8147 26C35.8147 23.063 35.8037 22.715 35.7509 21.555C35.702 20.482 35.5235 19.9 35.3729 19.512C35.1734 18.999 34.9371 18.632 34.5531 18.247C34.199 17.8821 33.768 17.6012 33.2916 17.425C32.9046 17.274 32.3242 17.095 31.2541 17.046ZM25.42 29.391C26.2025 29.7176 27.0738 29.7617 27.8852 29.5157C28.6965 29.2697 29.3975 28.7489 29.8685 28.0422C30.3394 27.3356 30.5511 26.4869 30.4673 25.6411C30.3835 24.7953 30.0095 24.005 29.4091 23.405C29.0264 23.0215 28.5636 22.7278 28.0541 22.5451C27.5446 22.3625 27.0011 22.2954 26.4626 22.3486C25.9241 22.4019 25.4041 22.5742 24.9401 22.8531C24.476 23.1321 24.0793 23.5107 23.7787 23.9619C23.4781 24.413 23.281 24.9253 23.2015 25.462C23.122 25.9986 23.1622 26.5463 23.3192 27.0655C23.4762 27.5847 23.746 28.0626 24.1092 28.4647C24.4725 28.8668 24.9201 29.1832 25.42 29.391ZM22.834 22.002C23.3576 21.477 23.9792 21.0605 24.6633 20.7764C25.3474 20.4922 26.0807 20.346 26.8211 20.346C27.5616 20.346 28.2949 20.4922 28.979 20.7764C29.6631 21.0605 30.2847 21.477 30.8083 22.002C31.3319 22.527 31.7473 23.1503 32.0306 23.8363C32.314 24.5223 32.4598 25.2575 32.4598 26C32.4598 26.7425 32.314 27.4777 32.0306 28.1637C31.7473 28.8497 31.3319 29.473 30.8083 29.998C29.7508 31.0583 28.3166 31.654 26.8211 31.654C25.3257 31.654 23.8914 31.0583 22.834 29.998C21.7765 28.9377 21.1824 27.4995 21.1824 26C21.1824 24.5005 21.7765 23.0623 22.834 22.002ZM33.7104 21.188C33.8402 21.0653 33.944 20.9177 34.0159 20.754C34.0877 20.5903 34.1261 20.4138 34.1287 20.2349C34.1313 20.0561 34.0981 19.8785 34.031 19.7128C33.964 19.5471 33.8644 19.3965 33.7383 19.27C33.6122 19.1436 33.462 19.0438 33.2967 18.9765C33.1314 18.9093 32.9544 18.876 32.776 18.8786C32.5977 18.8812 32.4217 18.9197 32.2584 18.9917C32.0951 19.0637 31.9479 19.1679 31.8255 19.298C31.5875 19.551 31.4572 19.8871 31.4622 20.2349C31.4673 20.5827 31.6073 20.9149 31.8526 21.1608C32.0979 21.4068 32.4292 21.5472 32.776 21.5523C33.1229 21.5574 33.4581 21.4267 33.7104 21.188Z" fill="#FEFEFE"/>
</svg>
