<svg width="52" height="51" viewBox="0 0 52 51" fill="none" xmlns="http://www.w3.org/2000/svg">
<ellipse cx="25.9946" cy="25.5" rx="25.4309" ry="25.5" fill="#2B2B2B"/>
<path d="M23.9137 21H20.2246C18.9777 21 17.7818 21.4967 16.9001 22.3808C16.0184 23.2649 15.5231 24.464 15.5231 25.7143C15.5231 26.9646 16.0184 28.1637 16.9001 29.0478C17.7818 29.9319 18.9777 30.4286 20.2246 30.4286H24.9261C25.6784 30.429 26.4199 30.2483 27.0882 29.9018C27.7565 29.5553 28.3321 29.053 28.7666 28.4371C29.2011 27.8212 29.4819 27.1098 29.5854 26.3626C29.6889 25.6153 29.612 24.8541 29.3612 24.1429H28.0604C27.9257 24.1429 27.794 24.1586 27.6686 24.1916C27.9329 24.6701 28.0681 25.2095 28.0608 25.7564C28.0535 26.3034 27.9039 26.8389 27.6269 27.3102C27.3499 27.7814 26.9551 28.172 26.4814 28.4433C26.0077 28.7146 25.4716 28.8573 24.9261 28.8572H20.2246C19.3933 28.8572 18.5961 28.526 18.0083 27.9366C17.4205 27.3472 17.0902 26.5478 17.0902 25.7143C17.0902 24.8808 17.4205 24.0814 18.0083 23.492C18.5961 22.9026 19.3933 22.5714 20.2246 22.5714H22.6302C22.9718 21.9806 23.4059 21.4494 23.9153 21H23.9137Z" fill="#FEFEFE"/>
<path d="M28.0604 21C27.3081 20.9996 26.5666 21.1803 25.8983 21.5268C25.23 21.8733 24.6544 22.3756 24.2199 22.9915C23.7854 23.6073 23.5046 24.3188 23.4011 25.066C23.2977 25.8132 23.3745 26.5745 23.6253 27.2857H25.3461C25.071 26.808 24.9262 26.266 24.9262 25.7143C24.9262 25.1626 25.071 24.6207 25.3461 24.1429C25.6212 23.6651 26.0168 23.2684 26.4933 22.9925C26.9698 22.7167 27.5102 22.5714 28.0604 22.5714H32.7619C33.5932 22.5714 34.3905 22.9026 34.9783 23.492C35.5661 24.0814 35.8963 24.8808 35.8963 25.7143C35.8963 26.5478 35.5661 27.3472 34.9783 27.9366C34.3905 28.526 33.5932 28.8572 32.7619 28.8572H30.3563C30.0154 29.4471 29.5814 29.9778 29.0713 30.4286H32.7619C33.3794 30.4286 33.9907 30.3067 34.5611 30.0697C35.1315 29.8328 35.6498 29.4856 36.0864 29.0478C36.523 28.61 36.8693 28.0903 37.1056 27.5184C37.3418 26.9464 37.4635 26.3334 37.4635 25.7143C37.4635 25.0952 37.3418 24.4822 37.1056 23.9102C36.8693 23.3382 36.523 22.8185 36.0864 22.3808C35.6498 21.943 35.1315 21.5958 34.5611 21.3589C33.9907 21.1219 33.3794 21 32.7619 21H28.0604Z" fill="#FEFEFE"/>
</svg>
