<svg width="51" height="51" viewBox="0 0 51 51" fill="none" xmlns="http://www.w3.org/2000/svg">
<ellipse cx="25.4309" cy="25.5" rx="25.4309" ry="25.5" fill="#2B2B2B"/>
<path d="M36.1162 17H15.7429C15.3095 17 14.9594 17.3511 14.9594 17.7857V33.5C14.9594 33.9346 15.3095 34.2857 15.7429 34.2857H36.1162C36.5496 34.2857 36.8997 33.9346 36.8997 33.5V17.7857C36.8997 17.3511 36.5496 17 36.1162 17ZM35.1367 19.7205V32.5178H16.7224V19.7205L16.0466 19.1926L17.0089 17.9527L18.057 18.7703H33.8046L34.8526 17.9527L35.815 19.1926L35.1367 19.7205ZM33.8046 18.7679L25.9296 24.9062L18.0545 18.7679L17.0065 17.9502L16.0441 19.1902L16.72 19.7181L25.0847 26.2395C25.3253 26.4269 25.6213 26.5286 25.9259 26.5286C26.2305 26.5286 26.5264 26.4269 26.767 26.2395L35.1367 19.7205L35.8125 19.1926L34.8502 17.9527L33.8046 18.7679Z" fill="#FEFEFE"/>
</svg>
